<svg width="35" height="35" viewBox="0 0 35 35" fill="none" xmlns="http://www.w3.org/2000/svg">
<path d="M1.4585 26.25C1.67725 23.6493 2.4735 21.2552 3.84725 19.0677C5.221 16.8802 7.04975 15.1424 9.3335 13.8542L6.63558 9.1875C6.48975 8.96875 6.45329 8.73785 6.5262 8.49479C6.59912 8.25174 6.75711 8.06944 7.00016 7.94792C7.19461 7.82639 7.41336 7.80208 7.65641 7.875C7.89947 7.94792 8.09391 8.09375 8.23975 8.3125L10.9377 12.9792C13.0279 12.1042 15.2154 11.6667 17.5002 11.6667C19.7849 11.6667 21.9724 12.1042 24.0627 12.9792L26.7606 8.3125C26.9064 8.09375 27.1009 7.94792 27.3439 7.875C27.587 7.80208 27.8057 7.82639 28.0002 7.94792C28.2432 8.06944 28.4012 8.25174 28.4741 8.49479C28.547 8.73785 28.5106 8.96875 28.3648 9.1875L25.6668 13.8542C27.9516 15.1424 29.7803 16.8802 31.1531 19.0677C32.5259 21.2552 33.3221 23.6493 33.5418 26.25H1.4585ZM11.5035 21.7102C11.8554 21.3583 12.0314 20.9271 12.0314 20.4167C12.0314 19.9062 11.855 19.4746 11.502 19.1217C11.1491 18.7688 10.7179 18.5928 10.2085 18.5937C9.69905 18.5947 9.26739 18.7712 8.9135 19.1231C8.55961 19.4751 8.38364 19.9062 8.38558 20.4167C8.38752 20.9271 8.56398 21.3587 8.91496 21.7117C9.26593 22.0646 9.69711 22.2406 10.2085 22.2396C10.7199 22.2386 11.1516 22.0622 11.5035 21.7102ZM26.0868 21.7102C26.4388 21.3583 26.6147 20.9271 26.6147 20.4167C26.6147 19.9062 26.4383 19.4746 26.0854 19.1217C25.7325 18.7688 25.3013 18.5928 24.7918 18.5937C24.2824 18.5947 23.8507 18.7712 23.4968 19.1231C23.1429 19.4751 22.967 19.9062 22.9689 20.4167C22.9709 20.9271 23.1473 21.3587 23.4983 21.7117C23.8493 22.0646 24.2804 22.2406 24.7918 22.2396C25.3032 22.2386 25.7349 22.0622 26.0868 21.7102Z" fill="#14AE5C"/>
</svg>
