<svg width="25" height="24" viewBox="0 0 25 24" fill="none" xmlns="http://www.w3.org/2000/svg">
<path d="M12.5008 22.5C17.5883 22.5 21.0938 20.3216 21.0938 11.9996C21.0938 3.67797 17.5883 1.5 12.5008 1.5C7.41357 1.5 3.90625 3.67833 3.90625 11.9996C3.90625 20.3217 7.41324 22.5 12.5008 22.5Z" fill="white"/>
<path d="M13.442 6.685L15.3684 8.42129L13.4431 10.1561L13.442 6.685V6.685ZM13.442 17.3136L15.3684 15.5776L13.4431 13.8424L13.442 17.3136V17.3136ZM11.3851 11.9993L7.22062 8.23631L8.4277 7.14869L11.7452 10.1401V2.97144L17.7786 8.40883L13.7949 11.9993L17.7794 15.5907L11.7456 21.0283V13.8591L8.4273 16.8509L7.22015 15.7626L11.3851 11.9993V11.9993ZM12.5008 22.5C17.5883 22.5 21.0938 20.3216 21.0938 11.9996C21.0938 3.67797 17.5883 1.5 12.5008 1.5C7.41357 1.5 3.90625 3.67833 3.90625 11.9996C3.90625 20.3217 7.41324 22.5 12.5008 22.5V22.5Z" fill="#0060A9"/>
</svg>
